<?xml version="1.0" encoding="UTF-8"?>
<svg id="Layer_1" xmlns="http://www.w3.org/2000/svg" version="1.1" viewBox="0 0 560 560">
  <!-- Generator: Adobe Illustrator 29.6.0, SVG Export Plug-In . SVG Version: 2.1.1 Build 207)  -->
  <defs>
    <style>
      .st0 {
        fill: none;
        stroke: #231f20;
      }

      .st0, .st1 {
        stroke-miterlimit: 10;
        stroke-width: 10px;
      }

      .st1 {
        fill: #fff;
        stroke: #fff;
      }
    </style>
  </defs>
  <path class="st0" d="M505.62,361.3c14.71-13.96-81.56-88.42-180.42-109.06-5.61-1.17-37.62,50.39-46.93,61.97-5.12,6.37,2.12,5.09,3.89,5.62,77.28,23.38,101.17,45.9,122.52,71.27,1.47,1.74,1.73,3.77,3.9,3.07-6.18,2.55,74.08-11.09,97.03-32.88h0Z"/>
  <path class="st1" d="M504.94,358.46c13.1-9.53-19.68,86.13-32.55,91.98-133.58,60.72-300.53,19.67-318.87,13.46l-17.9,44.84c-.33.82-1.41.97-1.95.28L30.29,376.74c-.61-.78-.2-1.94.77-2.16l164.67-37.57c.91-.21,1.68.68,1.35,1.56l-15.56,40.66c24.94,16.39,245.34,36,323.42-20.77Z"/>
  <path class="st1" d="M233.81,308.61c7.91.27,34.72-48.14,43.1-63.84.75-1.41,1.07-3.02.92-4.62-.13-1.31-.46-2.59-1.28-2.71-35.78-5.19-109.87-40.61-122-65.97-6.21-12.98-82.93,5.15-99.8,19-1.8,1.48-2.66,3.91-2.26,6.28,6.15,36.71,106.89,109.36,181.32,111.87h0Z"/>
  <path class="st0" d="M50.66,192.93c-12.28,10.68,21.28-77.23,34.2-83.22,128.85-59.75,301.49-25.11,328.92-12.7l17.27-45.86c.25-.68,1.17-.81,1.61-.23l96.72,127.88c1.35,1.78.39,4.35-1.8,4.84l-157.96,35.26c-.95.21-1.74-.71-1.4-1.6l15.66-40.63c-31.02-17.18-270.22-38.49-333.23,16.27h-.01Z"/>
</svg>